<svg width="36" height="36" viewBox="0 0 36 36" fill="none" xmlns="http://www.w3.org/2000/svg">
<path fill-rule="evenodd" clip-rule="evenodd" d="M35.1282 18.3978C35.1282 17.1569 35.0168 15.9637 34.81 14.8182H18.3281V21.5876H27.7463C27.3406 23.7751 26.1077 25.6285 24.2543 26.8694V31.2603H29.91C33.2191 28.2137 35.1282 23.7273 35.1282 18.3978Z" fill="#4285F4"/>
<path fill-rule="evenodd" clip-rule="evenodd" d="M18.3271 35.4999C23.0522 35.4999 27.0135 33.9329 29.909 31.2601L24.2533 26.8692C22.6862 27.9192 20.6817 28.5397 18.3271 28.5397C13.7692 28.5397 9.91122 25.4613 8.53508 21.3249H2.68848V25.859C5.56803 31.5783 11.4862 35.4999 18.3271 35.4999Z" fill="#34A853"/>
<path fill-rule="evenodd" clip-rule="evenodd" d="M8.5361 21.3249C8.1861 20.2749 7.98723 19.1533 7.98723 17.9999C7.98723 16.8465 8.1861 15.7249 8.5361 14.6749V10.1408H2.68949C1.50426 12.5033 0.828125 15.176 0.828125 17.9999C0.828125 20.8238 1.50426 23.4965 2.68949 25.859L8.5361 21.3249Z" fill="#FBBC05"/>
<path fill-rule="evenodd" clip-rule="evenodd" d="M18.3271 7.46024C20.8965 7.46024 23.2033 8.3432 25.0169 10.0773L30.0363 5.05796C27.0056 2.23409 23.0442 0.5 18.3271 0.5C11.4862 0.5 5.56803 4.4216 2.68848 10.1409L8.53508 14.675C9.91122 10.5387 13.7692 7.46024 18.3271 7.46024Z" fill="#EA4335"/>
</svg>
