<svg width="447" height="580" viewBox="0 0 447 580" fill="none" xmlns="http://www.w3.org/2000/svg">
<g clip-path="url(#clip0_35_176)">
<path d="M219.212 272.326L219.131 272.245L219.058 272.267L218.934 272.296L218.816 272.487L218.794 272.531L218.838 272.589L218.882 272.574L219.073 272.618L219.219 272.56L219.234 272.516L219.205 272.457L219.212 272.326Z" fill="#CDCACA"/>
<path d="M217.425 170.381L220.23 170.696L220.516 169.715L221.351 168.574L221.116 165.83L218.406 167.644L217.19 167.666L217.396 170.308L217.425 170.381Z" fill="#CDCACA"/>
<path d="M105.27 216.352L106.794 217.632L106.34 218.847L107.013 220.186L107.907 226.868L106.882 229.319L106.164 233.695L108.932 238.466L109.474 240.486L109.811 246.099L109.379 248.945L110.419 253.402L110.221 261.415L110.024 262.425L104.867 269.969L104.933 271.879L104.311 273.76L104.655 276.643L104.201 277.704L104.728 279.322L104.662 281.978L104.457 282.966L103.395 283.705L104.01 284.803L103.322 285.813L102.736 286.815L100.986 286.23V286.822L99.9748 287.379L100.224 288.915L101.374 287.408L103.241 288.081L102.326 289.698L99.7112 291.125L100.121 291.784L99.5281 292.669L100.253 292.933L100.121 293.745L99.4402 294.118L99.8869 294.426L97.8069 295.509L97.9607 296.767L97.5579 297.17L97.7849 297.433L99.4036 296.226L99.1838 296.95L97.7336 299.307L96.1883 299.424L95.3313 298.026L92.9436 297.938L93.8958 295.523L92.0574 295.443L90.9149 294.828L90.3729 294.601L88.8055 293.972L87.9559 293.043L86.4325 293.211L85.3265 291.857L84.7772 291.455L83.5248 291.777L83.9349 290.32L82.7338 290.467L81.4374 289.874L81.2543 289.347L80.954 288.066L81.5399 287.832L81.5692 286.23L82.1039 285.586L82.6532 286.193L83.8617 285.256L84.6454 285.33L84.9969 284.122L86.2494 283.625L86.1688 283.112L83.5028 282.82L82.3676 281.963L81.225 282.688L80.9687 280.617L78.4199 281.597L78.332 280.719L76.6108 280.661L76.6767 280.178L77.5776 280.346L79.3061 278.861L79.5038 277.836L80.0019 277.09L80.8515 277.097L81.2983 276.051L81.474 275.15L81.1005 273.526L82.0233 272.897L81.247 271.521L80.5585 271.645L79.7968 271.748L78.8666 272.26L75.9663 272.15L74.6845 272.977L75.2632 270.906L74.1206 269.391L76.2153 269.216L76.9917 268.499L76.4497 267.672L76.6621 267.013L79.936 265.14L79.5771 264.342L78.8813 264.445L78.1635 261.978L76.6328 262.571L76.1494 261.517L74.8603 260.844L73.6811 261.181L74.1645 260.405L73.8423 259.995L72.8096 260.295L72.9268 258.993L73.8276 258.612L73.6811 257.266L73.1245 257.302L72.5752 256.19L72.1504 255.663L77.9658 254.185L76.6694 252.385L75.9077 252.546L75.3657 251.88L74.5674 252.224L74.3183 251.543L75.4536 250.885L75.0141 250.028L74.0913 249.831L72.8462 250.892L72.8169 249.472L72.2676 249.077L72.4287 248.499L73.249 249.019L73.5273 248.309L74.7505 248.14L74.626 246.626L76.4936 246.677L76.9843 245.184L77.4238 243.962L76.2519 243.472L76.9257 241.591L78.5737 240.566L79.0351 239.513L78.8666 238.825L78.4199 238.861L79.1523 238.093L79.2182 239.279L80.2582 238.766L80.4194 239.396L81.5253 239.674L82.3456 237.852L82.0233 237.2L84.4623 236.9L84.9091 235.846L86.1249 235.861L86.557 235.312L90.0286 235.239L91.7278 234.222L92.1014 232.663L92.6873 231.5L94.1448 230.644L95.7415 230.387L96.8987 230.995L97.7922 230.453L98.1804 231.214L99.1399 231.346L99.5647 232.18L100.151 233.497L100.671 233.432L102.399 230.417L102.311 227.416L101.066 225.47L102.223 223.801L101.535 222.06L103.014 220.838L102.553 220.56L102.926 219.769L102.231 217.267L102.875 216.593L105.27 216.352Z" fill="#CDCACA"/>
<path d="M291.018 556.542L291.238 556.938L290.264 557.699L292.007 557.86L291.553 558.891L293.237 558.189L293.083 558.76L293.552 558.438L295.749 559.696L295.537 560.048L296.467 560.604L295.874 560.589L295.808 561.255L296.68 560.801L295.932 561.892L296.936 561.058L298.547 562.184L298.232 564.629L297.705 563.721L296.965 564.394L297.778 564.694L297.053 565.236L292.974 564.358L289.736 561.914L289.429 560.75L289.905 560.699L289.612 560.018L290.051 559.455L289.443 559.038L289.934 558.482L289.744 557.779L289.084 557.684L289.487 556.981L291.018 556.542ZM289.839 555.379L290.322 555.898L289.326 556.133L289.268 555.474L289.839 555.379ZM285.928 552.554L288.784 553.586L289.758 554.823L286.953 555.781L284.221 554.735L284.089 552.876L285.928 552.554Z" fill="#CDCACA"/>
<path d="M274.121 222.484L275.117 227.123L276.758 231.156L281.35 239.337L286.484 244.979L292.52 249.479L293.157 251.184L295.845 253.768L296.086 254.756L300.159 257.463L303.938 258.802L304.092 262.351L306.604 264.13L305.747 265.483L306.413 266.098L304.333 267.532L302.649 269.611L302.048 271.879L300.32 273.094L299.06 275.824L295.574 279.578L294.08 279.307L294.658 278.839L293.874 275.699L293.069 274.916L291.282 273.731L290.513 274.697L290.095 274.536L289.377 272.933L288.469 273.028L287.781 272.106L285.649 273.848L284.602 275.472L282.976 275.582L282.669 276.241L283.584 278.839L284.697 279.49L284.39 280.244L283.767 280.148L283.584 279.409L283.093 280.317L281.636 280.353L281.174 282.285L280.596 280.77L279.746 280.836L279.109 282.593L278.135 282.629L277.93 283.698L276.56 282.98L275.022 283.361L273.198 280.968L271.763 281.107L270.005 280.075L269.251 280.551L268.277 280.258L266.995 277.836L266.028 278.37L265.244 277.507L263.941 277.148L263.164 278.678L260.198 279.665L259.114 278.985L258.579 277.66L257.232 277.346L256.148 276.299L254.881 275.787L253.855 276.782L253.123 274.126L254.06 272.45L253.328 271.418L252.588 271.55L251.138 269.882L250.479 270.152L244.876 266.867L243.389 266.34L243.374 267.247L241.631 266.779L240.599 265.132L240.708 261.532L241.28 261.795L242.803 260.493L242.84 258.744L244.107 258.649L248.912 261.232L249.82 260.668L251.058 261.122L251.841 259.49L252.94 259.278L252.552 258.758L253.892 258.517L252.478 257.624L252.259 256.431L250.479 255.817L248.589 253.958L248.113 251.558L245.374 249.743L246.897 248.038L243.975 245.301L246.304 243.53L246.231 241.788L245.498 240.427L246.253 240.003L246.81 237.983L248.824 238.744L249.27 238.21H250.259L250.684 238.927L251.783 238.364L253.438 238.59L254.427 237.734L254.983 235.224L253.526 234.763L252.683 233.761L253.079 232.531L254.295 232.883L255.672 231.909L256.089 232.246L256.529 230.512L258.264 230.226L258.484 228.404L259.466 227.314L259.641 226.26L261.165 227.087L262.901 226.275L263.391 226.962L264.38 226.838L265.852 226.15L266.189 224.533L266.687 224.255L268.723 224.123L270.269 223.091L273.924 222.308L274.121 222.484Z" fill="#CDCACA"/>
<path d="M335.029 314.769L334.787 313.869L335.768 312.969L337.197 312.691L340.602 313.261L342.441 312.603L343.503 313.371L344.741 312.705L344.623 312.01L345.846 311.695L345.715 311.139L346.315 311.352L347.355 310.729L349.04 311.937L350.314 312.156L350.49 312.91L351.413 313.13L351.86 314.849L352.314 314.542L353.661 315.64L353.193 316.401L353.412 317.535L352.101 319.035L350.995 318.838L351.442 319.665L355.536 321.406L356.701 322.511L358.268 321.077L359.733 321.553L361.886 326.28L366.691 330.707L367.262 331.98L368.383 332.288L370.932 329.331L372.426 331.139L372.382 329.756L373.092 329.566L373.715 330.539L373.795 329.266L375.033 329.8L375.773 329.331L375.897 330.056L376.754 330.568L377.15 330.027L379.289 331.651L378.534 332.024L379.428 333.056L378.769 335.705L379.442 337.205L378.981 337.542L378.666 339.657L379.369 340.396L379.047 340.989L379.896 341.633L379.193 343.155L379.823 343.843L381.068 343.528L382.365 344.311L382.636 345.496L383.91 346.572L384.481 347.933L381.596 352.061L378.073 359.642L376.396 360.864L374.403 360.169L372.118 360.879L369.862 360.132L368.463 360.403L367.98 359.591L367.519 360.666L367.68 362.745L366.925 364.369L367.116 365.833L364.882 369.814L365.695 370.648L365.373 371.614L363.805 369.865L362.34 369.733L360.195 370.216L360.18 371.497L358.144 370.567L357.382 371.358L353.866 371.548L352.731 370.275L353.002 369.821L352.38 368.65L353.288 367.018L352.438 366.784L351.347 367.406L350.842 366.703L349.487 366.484L348.439 367.384L347.985 366.747L347.304 367.106L346.645 366.418L345.414 366.55L343.693 368.401L342.997 370.304L341.686 367.706L340.148 366.301L340.046 365.218L338.815 364.501L340.053 363.762L339.123 362.752L340.009 362.503L341.152 360.952L340.917 358.822L342.104 357.615L342.001 356.883L344.543 355.8L344.162 354.9L344.843 354.292L344.814 353.253L344.367 352.412L342.221 351.79L342.118 350.824L340.917 349.719L340.881 347.845L339.343 347.289L338.171 345.723L336.662 344.97L336.31 343.704L334.721 342.452L335.248 341.662L334.26 339.313L334.772 338.713L331.586 336.788L332.121 335.31L333.33 334.571L333.373 333.978L329.03 331.161L329.155 327.612L328.554 327.56L328.715 326.697L327.207 325.768L328.745 325.658L328.833 324.092L328.085 323.711L328.4 323.228L331.909 324.019L332.377 323.763L332.209 322.914L334.377 321.97L336.032 317.674L335.029 314.769Z" fill="#CDCACA"/>
<path d="M342.998 370.304L343.693 368.401L345.414 366.557L346.645 366.426L347.304 367.106L347.985 366.748L348.439 367.384L349.487 366.484L350.849 366.704L351.354 367.406L352.446 366.784L353.295 367.011L352.387 368.643L353.01 369.814L352.739 370.267L353.874 371.541L357.389 371.351L358.151 370.56L360.187 371.482L360.202 370.202L362.348 369.726L363.813 369.858L365.38 371.599L365.702 370.633L364.897 369.799L367.131 365.818L366.933 364.347L367.687 362.73L367.533 360.652L367.995 359.583L368.478 360.388L369.877 360.118L372.14 360.864L374.425 360.154L376.418 360.849L375.019 362.635L374.77 364.56L375.766 368.797L372.397 373.063L370.566 376.451L370.595 378.588L372.067 380.286L371.664 382.818L375.385 385.02L381.274 385.108L384.731 389.008L388.166 391.109L390.707 391.76L391.278 393.267L392.846 394.775L395.717 395.763L393.988 400.066L393.805 402.766L395.394 405.093L393.959 409.886L395.014 411.262L394.787 411.957L395.314 412.791L397.555 413.852L395.973 415.287L396.156 417.336L393.358 420.263L393.161 419.458L392.128 419.085L390.583 419.641L389.015 418.053L385.58 418.594L381.391 420.153L374.982 424.119L372.309 428.912L373.151 430.405L374.111 440.401L373.774 442.465L369.635 446.768L364.333 449.007L358.473 456.413L357.734 461.374L355.873 464.909L354.636 466.446L352.189 466.841L349.238 466.153L343.239 466.716L340.134 464.953L338.544 461.974L339.328 460.862L338.398 458.381L339.321 456.259L338.5 453.8L338.537 451.81L341.54 450.581L342.924 450.537L344.814 449.468L345.729 447.88L346.066 445.553L346.909 444.792L347.495 442.787L348.571 441.807L349.106 440.387L349.655 436.823L345.759 433.34L346.11 432.008L347.436 430.749L350.527 429.725L351.801 428.386L353.603 428.166L356.108 428.912L357.375 428.547L359.147 427.156L360.597 422.414L360.385 418.668L358.122 417.57L355.91 413.487L354.723 408.166L354.152 400.512L352.138 393.875L349.465 389.704L347.531 388.321L345.978 382.942L345.312 382.393L344.287 375.961L343.583 374.724L344.426 373.304L342.998 370.304Z" fill="#CDCACA"/>
<path d="M285.598 339.232L287.07 339.408L286.565 340.081L284.419 340.381L284.514 339.188L285.598 339.232ZM272.187 329.375L275.417 330.253L275.806 330.817L275.3 332.332L273.235 332.354L273.008 332.793L271.558 332.032L271.528 330.663L272.187 329.375ZM276.289 294.491L277.402 295.055L277.197 296.167L278.706 297.96L280.281 297.609L281.233 298.238L281.035 296.467L280.032 295.245L281.643 292.296L283.32 293.694L283.606 292.684L286.133 292.728L286.286 293.35L287.583 293.357L287.781 294.103L289.267 294.901L295.134 296.613L295.412 297.777L296.284 298.443L298.73 298.062L299.624 299.35L301.228 297.923L301.997 297.879L301.967 297.192L303.41 297.016L304.099 297.557L305.476 297.133L306.735 295.018L309.672 296.262L310.822 295.099L312.763 294.938L314.946 293.401L316.272 295.479L318.366 296.065L318.505 296.65L317.905 297.221L318.3 298.099L317.524 298.231L316.909 299.087L317.363 301.004L319.538 301.78L319.692 303.368L322.197 303.265L322.958 304.348L324.145 304.114L325.068 305.161L323.889 305.907L324.511 307.649L323.032 308.527L322.438 309.983L323.588 310.547L324.123 311.93L325.595 312.983L326.401 312.325L328.474 313.196L329.719 312.252L331.257 313.569L332.407 313.466L335.043 314.784L336.047 317.689L334.391 321.984L332.224 322.928L332.392 323.777L331.923 324.033L328.415 323.236L328.093 323.726L328.84 324.099L328.752 325.672L327.214 325.782L328.723 326.712L328.561 327.568L329.169 327.619L329.045 331.168L333.388 333.986L333.344 334.578L332.128 335.31L331.594 336.788L334.78 338.713L334.274 339.313L335.263 341.662L334.736 342.452L336.318 343.704L336.677 344.97L338.185 345.723L339.357 347.289L340.895 347.845L340.932 349.719L342.14 350.824L342.243 351.79L344.389 352.412L344.836 353.253L344.865 354.3L344.184 354.907L344.565 355.807L342.023 356.883L342.126 357.615L340.947 358.822L341.181 360.952L340.038 362.503L339.159 362.752L340.09 363.754L338.845 364.494L338.215 363.059L336.179 362.781L333.557 363.469L330.451 367.033L327.968 366.616L326.481 365.167L324.863 365.569L324.724 365.108L325.353 364.633L324.848 363.001L322.424 360.674L321.34 360.513L319.501 358.295L316.074 358.339L314.133 355.924L311.438 355.09L310.983 354.314L312.434 353.217L312.507 350.282L314.419 349.185L314.426 347.033L309.995 337.842L306.091 333.744L304.091 334.051L303.095 335.61L300.649 334.9L298.664 336.657L296.943 336.957L295.163 335.983L289.26 338.815L289.831 335.815L292.146 335.354L292.461 334.278L295.083 332.478L294.292 330.158L292.021 329.441L289.429 326.595L287.407 325.248L285.466 326.06L284.118 327.802L283.042 327.641L283.613 327.363L283.093 326.616L280.64 325.914L279.834 326.485L280.456 328.453L278.808 327.897L278.801 324.589L277.981 321.714L276.04 318.618L275.996 318.508L274.231 316.606L273.206 313.071L270.598 308.812L268.262 306.463L268.665 305.497L270.862 305.073L271.228 304.509L270.752 304.334L270.825 303.58L273.103 302.768L272.349 299.497L272.949 298.399L271.982 296.774L273.557 296.504L275.791 294.477L276.289 294.491Z" fill="#CDCACA"/>
<path d="M230.206 166.978L229.349 169.24L229.517 172.262L227.671 172.986L227.276 174.523L225.137 174.26L225.276 173.499L224.69 173.272L224.185 171.435L222.193 172.262V170.696L220.53 169.73L221.358 168.588L221.124 165.844L218.414 167.659L217.198 167.688L217.403 170.323L218.289 171.947L217.103 171.94L216.854 171.34L215.396 171.918L214.656 174.457L212.752 175.987L212.606 177.575L212.576 177.553L211.375 178.204L209.888 177.933L209.28 179.375L208.145 177.684L207.091 178.27L206.058 178.153L204.798 178.811L203.985 177.882L203.311 178.065L202.242 177.406L201.466 177.714L200.272 176.945L200.118 176.235L199.129 176.104L198.748 175.16L195.335 175.006L193.87 173.242L191.248 171.779L191.446 169.54L190.113 168.647L190.355 167.454L188.765 165.932L188.949 165.09L189.439 165.156L189.293 164.359L190.523 163.89L190.838 162.434L192.325 160.831L192.574 158.863L188.568 159.668L186.627 159.404L187.689 157.868L187.55 157.107L185.645 156.719L184.891 157.451L184.012 157.26L182.745 155.819L181.727 155.541L181.478 153.975L180.504 153.097L178.702 154.845L176.878 155.036L176.732 155.819L175.062 157.334L172.14 157.436L172.059 158.124L174.205 159.368L174.388 160.158L172.528 160.275L170.265 159.624L167.818 160.685L165.797 160.451L164.662 159.609L165.116 158.848L164.823 158.182L161.263 162.178L160.78 161.958L161.014 161.263L160.516 160.597L158.846 160.231L155.206 157.282L151.127 157.187L150.394 158.087L150.446 159.075L149.222 159.383L146.718 157.151L146.542 156.016L145.267 154.845L145.304 153.836L144.41 153.345L143.187 153.558L141.027 151.333L139.855 151.311L138.251 150.411L136.508 151.282L132.384 146.928L130.597 147.301L127.462 145.149L126.635 144.227L127.03 142.31L126.261 142.156L125.895 141.249L124.115 140.612L120.197 141.044L117.699 144.974L115.063 146.503L114.023 144.074L112.045 142.617L111.276 143.093L110.243 142.456L109.987 143.159L107.951 143.356L107.262 144.183L107.072 143.327L105.863 143.613L106.991 140.312L107.958 140.159L108.31 137.656L107.68 136.126L105.314 135.314L104.736 134.048L102.948 135.358L100.641 133.492L100.319 134.26L98.781 134.004L99.03 133.39L98.5979 132.929L96.9426 133.251L96.9207 129.533L97.2795 129.672L98.5613 129.592L98.3269 128.113L99.2864 129.95L101.652 129.328L101.132 128.311L101.784 127.55L101.674 126.657L100.4 125.977L100.18 125.172L103 122.332L102.216 119.954L101.506 119.354L100.971 119.647L99.6892 118.469L100.605 117.268L100.165 116.522L101.381 116.215L102.384 113.251L103.586 111.97L103.498 110.375L104.999 109.029L104.919 108.538L105.819 108.67L106.054 108.077L108.134 107.55L109.284 108.911L110.111 108.158L109.65 106.16L110.185 106.072L111.357 107.638L112.294 107.243L112.77 105.845L113.444 106.76L113.334 108.59L116.396 109.899L117.582 108.86L117.948 108.121L117.399 107.324L118.036 107.126L118.644 108.253L119.999 108.948L120.27 110.309L120.951 107.96L121.684 107.982L122.423 109.065L123.068 108.78L123.214 107.931L122.387 106.767L123.705 105.699L124.24 106.145L123.961 107.748L126.071 106.131L126.723 106.197L128.1 107.989L127.777 109.08L128.891 109.98L128.942 110.873L130.033 110.617L130.619 111.89L133.058 110.748L133.446 111.429L135.072 111.385L137.269 113.119L138.441 113.149L140.514 114.81L142.308 113.829L143.385 115.966L146.732 117.598L149.618 117.473L150.68 116.859L152.775 113.844L153.104 115.029L154.423 113.514L155.133 115.798L158.363 116.324L158.912 116.903L159.557 116.785L159.615 117.334L160.597 117.21L160.45 117.634L161.52 116.976L162.508 117.137L162.677 116.295L164.376 115.424L166.661 115.615L167.342 115.037L169.283 115.505L170.177 116.639L170.58 116.163L173.429 115.937L173.692 115.454L174.776 116.222L175.999 115.058L180.562 115.732L180.68 116.822L184.854 116.551L186.392 117.583L186.707 118.769L187.227 118.952L188.136 118.864L189.615 117.473L191.951 116.822L192.493 115.198L194.632 114.202L199.224 114.261L200.843 113.69L205.75 114.473L207.427 116.727L208.511 116.017L209.105 116.785L210.679 116.91L211.749 115.966L212.54 115.959L213.148 116.749L212.686 117.656L212.928 119.771L213.397 120.466L214.854 120.84L215.294 122.435L214.817 122.559L213.946 121.213L213.074 120.949L211.807 122.618L212.73 122.252L211.514 125.45L211.082 129.094L211.434 131.516L212.869 134.319L212.789 140.788L214.085 144.271L214.239 146.752L215.74 151.984L217.029 154.567L221.944 160.29L223.79 161.527L228.162 166.232L230.206 166.978ZM208.658 175.255L208.46 176.082L209.464 177.245L211.06 176.426L210.84 175.621L210.687 175.277L208.658 175.255Z" fill="#CDCACA"/>
<path d="M231.912 25.0858L233.326 25.5541V26.6006L233.838 26.8713L236.848 26.6518L241.353 27.5226L242.774 27.1274L245.828 27.8739L248.508 29.8936L249.754 29.374L251.621 29.8936L252.485 28.9569L253.46 29.0667L253.54 28.4007L254.888 28.7813L254.815 29.3667L255.518 29.5935L258.374 29.0813L258.938 30.1351L260.557 29.8936L260.996 30.64L262.754 30.4278L266.401 31.5767L265.303 36.0405L263.911 35.5649L261.773 36.1064L260.769 38.192L257.195 40.2117L256.045 40.2629L256.06 42.2168L253.599 43.7389L255.408 47.0831L254.983 48.3345L256.323 48.2028L256.272 47.5295L257.598 47.5734L258.323 48.093L259.37 47.9174L260.535 48.6857L261.003 49.7688L263.347 49.4029L264.387 49.9956L263.633 52.352L261.018 54.8766L258.257 56.6256L258.477 58.2867L257.327 59.4649L259.561 61.5505L260.762 61.3822L261.736 60.2918L263.626 60.5406L263.42 63.0872L261.121 67.5218L261.882 69.9074L262.856 70.5587L264.6 70.2806L267.515 72.7467L269.36 73.237L271.997 77.8399L274.04 79.3255L271.023 82.0184L269.441 82.1209L267.632 81.1695L266.533 81.4403L266.467 80.7598L267.039 80.4524L269.023 81.0744L269.91 80.3719L268.862 80.4085L268.525 79.2669L267.786 79.4279L267.354 78.9449L268.254 78.2571L267.727 76.7496L263.223 71.9271L261.392 71.3929L260.564 71.6637L260.154 71.0783L259.15 72.1613L259.011 73.3761L260.3 74.4152L257.839 75.6007L257.253 75.4031L255.701 76.9106L253.928 77.0789L250.171 75.0592L248.823 74.8396H248.596L248.53 74.7884L245.432 75.608L243.323 78.8425L242.539 78.4034L242.627 77.957L241.909 78.0448L242.034 77.0789L241.294 76.4935L241.565 75.908L240.987 75.7617L240.569 73.8078L239.859 74.3274L240.115 73.4712L239.639 72.5199L239.998 72.3296L238.511 70.9173L239.309 70.4489L238.709 70.2001L238.841 69.6001L238.555 69.3293L238.584 69.1025L238.159 67.9462L237.727 68.1219L238.057 69.161L236.922 69.5269L236.563 68.7292L235.45 69.4171L234.534 68.5829L234.827 67.7779L234.358 67.7267L232.769 68.5243L232.366 69.2854L231.905 68.7512L232.22 68.0194L231.392 67.4047L229.942 68.9415L229.451 68.4512L226.609 71.0783L226.573 69.8928L225.752 69.5122L225.664 68.861L224.756 68.378L224.258 69.5562L222.793 68.7878L222.955 67.9097L221.936 66.9876L221.014 63.6726L219.93 63.6653L219.168 62.5603L218.121 62.5311L218.106 59.9918L217.586 58.0891L216.912 57.5037L218.208 55.4474L220.332 54.0131L220.662 51.3933L218.89 49.9664L218.67 48.4077L217.33 48.4808L217.139 47.3246L215.616 47.3393L214.063 45.2537L215.381 43.8779L215.352 42.4217L216.114 41.807L217.513 42.0046L217.754 40.5264L219.095 39.8458L218.963 39.4067L219.402 39.6043L219.168 38.5945L220.633 37.3065L220.838 36.0259L221.922 34.5331L222.222 34.8477L223.372 33.933L224.727 34.5111L225.489 33.933L226.822 34.5038L226.536 33.2305L225.635 32.6451L225.723 31.9572L228.257 30.3619L230.125 30.318L229.48 29.4691L229.993 27.808L229.283 26.5932L229.422 25.276L230.63 24.6101L231.912 25.0858Z" fill="#CDCACA"/>
<path d="M238.306 321.714L238.123 322.68L238.54 322.819L237.808 323.66L237.676 321.597L239.317 320.857L238.306 321.714ZM276.106 292.925L276.846 293.547L276.289 294.499L275.74 294.477L273.513 296.504L271.939 296.775L272.905 298.399L272.312 299.497L273.067 302.768L270.789 303.587L270.715 304.341L271.192 304.517L270.825 305.08L268.628 305.505L268.225 306.471L266.167 304.992L265.274 305.432L263.216 304.59L261.055 305.805L261.135 306.873L261.795 307.312L260.301 307.363L253.753 303.551L250.574 302.79L249.373 303.522L247.674 303.434L245.535 304.114L243.111 306.419L241.346 306.28L239.2 301.355L236.519 298.509L233.882 297.053L231.414 296.804L230.821 297.265L227.291 294.901L226.045 295.106L225.943 295.626L225.306 295.355L222.874 291.067L217.689 284.883L214.993 282.6L210.445 280.529L209.764 276.211L207.471 272.004L203.934 269.933L202.982 268.513L201.107 267.796L200.689 266.911L198.975 265.827L195.848 266.288L194.625 263.442L192.398 260.507L192.267 259.132L190.714 256.007L189.066 253.695L185.082 250.453L181.324 248.66L182.687 245.623L187.667 245.564L187.601 243.054L185.558 241.657L186.561 240.237L186.231 238.949L186.686 238.708L187.52 239.476L188.011 238.825L188.604 238.993L189.879 238.349L190.033 237.559L191.131 236.746L192.076 236.929L192.743 235.363L193.746 235.502L194.771 234.829L194.713 234.039L193.944 233.688L193.643 231.77L194.544 231.778L195.306 230.051L192.538 227.885L193.387 226.099L194.273 226.443L194.786 227.409L195.16 225.938L196.353 225.155L198.17 225.257L199.356 228.104L201.392 229.421L200.653 230.87L199.298 231.631L200.242 233.175L203.275 235.049L205.97 234.09L206.71 234.873L206.798 234.324L207.288 234.485L208.299 233.614L209.493 234.112L210.716 235.62L211.119 238.891L212.342 239.461L212.188 240.896L212.95 241.518L212.401 242.008L213.514 242.593L213.008 242.93L214.378 242.776L215.279 243.698L216.744 242.513L217.82 242.63L217.637 243.991L218.179 244.489L217.681 244.657L217.674 246.164L219.351 246.75L218.641 247.789L221.307 247.409L221.27 248.638L221.907 249.37L225.079 246.911L225.24 244.072L226.111 244.013L226.763 245.374L227.649 245.338L229.839 243.896L228.836 242.403L231.077 241.759L231.202 240.786L232.703 240.859L234.058 239.666L235.589 239.176L235.135 237.31L235.56 236.454L237.039 237.178L237.625 236.468L240.005 236.498L240.525 235.378L242.034 236.168L244.085 234.91L244.121 234.339L245.308 234.807L246.282 233.871L246.831 230.614L249.234 231.192L249.629 230.336L250.428 230.263L253.123 232.575L252.727 233.812L253.57 234.807L255.027 235.268L254.471 237.786L253.482 238.642L251.826 238.408L250.728 238.971L250.303 238.261L249.314 238.254L248.868 238.788L246.853 238.034L246.297 240.054L245.542 240.471L246.275 241.832L246.348 243.574L244.019 245.345L246.941 248.082L245.411 249.794L248.15 251.602L248.626 254.009L250.515 255.868L252.288 256.475L252.508 257.668L253.928 258.561L252.588 258.802L252.969 259.315L251.878 259.527L251.094 261.159L249.856 260.705L248.948 261.268L244.143 258.685L242.876 258.78L242.84 260.537L241.316 261.839L240.752 261.576L240.643 265.176L241.668 266.823L243.418 267.291L243.433 266.384L244.92 266.911L250.523 270.196L251.175 269.925L252.625 271.594L253.372 271.455L254.104 272.487L253.167 274.162L253.899 276.819L254.925 275.824L256.192 276.336L257.276 277.382L258.623 277.697L259.165 279.021L260.249 279.702L263.216 278.707L263.999 277.177L265.296 277.536L266.079 278.399L267.053 277.865L268.335 280.287L269.309 280.58L270.056 280.097L271.814 281.136L273.25 280.997L275.081 283.39L276.538 284.649L277.564 287.276L277.637 288.279L277.139 288.747L278.142 289.852L277.981 290.547L277.358 290.679L278.252 291.454L276.106 292.925ZM219.234 272.516L219.205 272.457L219.212 272.326L219.131 272.245L219.066 272.267L218.941 272.296L218.824 272.487L218.802 272.531L218.853 272.589L218.897 272.574L219.088 272.618L219.234 272.56V272.516Z" fill="#CDCACA"/>
<path d="M121.442 162.895L121.149 163.619L120.695 162.895H121.442ZM41.0007 162.039L41.5793 162.236L42.7145 161.014L41.755 161.029L41.0885 159.975L41.4328 158.848L42.8537 158.065L49.4454 160.173L50.6466 159.536L52.0821 160.041L52.4044 159.507L51.9942 158.87L51.0347 158.424L52.3824 157.312L53.503 158.058L54.543 157.699L55.4073 156.572L55.3706 155.153L54.3013 154.216L54.836 152.972L54.2061 152.167L55.1216 151.267L54.1915 150.308V149.577L54.5064 149.181L55.5757 149.657L55.7954 148.069L56.7403 148.186L57.458 147.008L57.2822 145.552L59.6186 144.264L60.168 142.852L59.1645 140.451L60.1753 140.122L60.146 138.732L61.2812 137.824L61.999 138.944L63.354 139.083L65.6098 140.993L66.5693 140.473L66.9794 138.863L67.5727 138.585L68.6493 139.354L69.4843 138.102L69.7406 138.732L72.0843 138.644L72.8168 139.193L74.8236 136.975L74.245 136.309L75.1458 134.897L77.7532 135.043L78.9398 135.219L80.2508 137.37L80.031 138.029L80.6609 138L80.9392 139.61L81.8694 139.273L81.6057 138.19L82.8801 137.122L82.8655 136.046L84.5354 135.834L85.1799 136.697L86.2346 136.134L86.0149 133.412L84.9602 132.27L86.1028 131.348L86.5715 130.133L87.7507 129.958L88.278 130.704L89.9479 130.521L91.1198 133.031L92.1745 132.819L93.2438 133.441L93.2072 134.524L94.401 135.409L96.9791 134.341L96.9352 133.272L98.5904 132.951L99.0299 133.412L98.7809 134.026L100.319 134.282L100.641 133.514L102.948 135.38L104.735 134.07L105.314 135.336L107.68 136.148L108.31 137.678L107.958 140.181L106.991 140.334L105.863 143.635L107.072 143.349L107.262 144.205L107.951 143.378L109.987 143.181L110.243 142.478L111.283 143.115L112.052 142.639L114.03 144.096L115.07 146.525L116.037 146.386L116.776 148.274L119.728 150.564L121.625 151.34L121.691 153.221L122.284 153.733L121.969 155.731L123.493 154.45L124.569 155.197L124.02 155.241L123.112 156.69L125.99 156.594L126.137 158.321L126.825 159.339L126.466 160.239L127.77 159.141L129.506 160.217L129.308 161.227L127.682 163.093L126.525 162.895L125.653 163.532L123.493 161.922L123.529 161.249L122.54 161.241L121.083 159.778L120.138 160.356L121.09 161.541L120.914 161.973L121.464 161.878L120.695 162.902L117.208 160.626L115.817 158.826L114.03 157.89L113.209 158.49L112.221 156.616L110.727 155.958L110.06 154.721L108.507 154.136L107.826 153.096L106.098 153.038L105.072 151.977L104.589 152.321L103.402 150.279L98.2535 147.381L97.4552 148.142L97.5431 149.906L94.8771 148.669L95.258 147.367L94.7526 146.664L86.9377 144.688L86.4616 143.913L86.0295 144.235L86.3298 144.725L83.0047 143.825L83.8616 143.671L83.1878 143.4L81.4446 143.32L81.6424 143.7L80.1336 143.349L78.6175 143.935L77.4969 145.01L76.1566 145.266L75.0799 146.393L70.7294 148.603L70.1654 149.342L70.6781 149.24L68.4809 151.252L69.0375 151.991L67.6313 153.858L67.9096 155.35L62.0503 158.277L60.5928 160.809L60.395 163.254L58.0952 165.837L57.9341 166.869L58.4761 167.864L55.334 169.979L54.6675 171.201L52.9756 171.567L49.8995 173.579L46.6476 174.238L45.5929 175.123L44.465 174.786L42.026 176.221L40.7004 176.001L39.5798 177.165L36.1447 176.382L35.2366 177.121L34.4895 176.96L32.9148 173.177L32.9807 172.05L33.53 171.362L35.3244 170.813L35.6028 168.493L38.8034 166.817L39.382 165.537L39.1989 163.985L40.7883 163.305L41.0007 162.039Z" fill="#CDCACA"/>
<path d="M136.303 26.0884L136.683 26.5128L136.017 27.5666L136.207 28.3862L137.723 28.6642L138.075 29.7985L139.716 30.2303L140.199 29.4912L141.832 30.1351L142.638 29.7839L144.037 30.8669L144.879 32.8427L147.64 33.0623L149.574 34.3575L150.328 35.3527L150.16 36.9553L150.775 37.9725L149.684 39.1141L148.241 39.1946L146.351 41.0606L148.285 41.99L148.724 43.4682L148.073 44.3976L148.666 44.7415L149.047 46.3075L147.377 49.3517L148.16 50.5153L147.472 53.757L145.033 56.7354L145.297 58.1258L144.425 58.8137L144.008 60.1528L144.044 60.8846L145.319 61.1188L145.201 62.6043L146.154 64.0605L145.487 65.5973L145.868 68.7513L147.516 69.4465L146.996 70.449L147.303 71.0856L148.27 71.1808L149.838 70.2075L151.288 70.1563L151.632 68.583L154.569 67.9902L155.499 68.7074L155.785 68.078L158.693 68.6415L150.57 80.7159L151.398 89.3143L151.105 90.7633L151.72 90.895L152.233 90.3022L154.034 91.1292L153.331 93.0098L154.034 93.5587L153.082 94.2758L153.815 95.3662L153.317 96.7639L154.408 97.0493L154.781 97.7737L156.547 96.3102L157.982 97.7225L158.802 99.4422L160.736 99.874L160.817 100.372L162.157 100.723L162.084 101.674L164.186 102.625L164.772 103.518L164.493 104.77L165.672 104.535L166.31 104.938L165.607 106.314L167.306 107.741L168.185 107.902L168.36 106.972L169.356 107.506L170.038 106.277L172.235 107.097L171.305 107.843L171.605 108.582L171.173 109.768L173.465 110.617L174.513 109.994L174.52 111.795L180.365 114.927L180.533 115.68L175.97 115.007L174.747 116.171L173.663 115.402L173.399 115.885L170.55 116.112L170.147 116.588L169.254 115.461L167.313 114.993L166.632 115.571L164.347 115.38L162.648 116.251L162.479 117.1L161.49 116.939L160.421 117.598L160.568 117.173L159.586 117.298L159.527 116.749L158.883 116.866L158.334 116.288L155.104 115.768L154.393 113.485L153.075 115L152.745 113.814L150.658 116.829L149.596 117.444L146.71 117.568L143.363 115.937L142.286 113.8L140.492 114.78L138.419 113.119L137.247 113.09L135.05 111.356L133.424 111.407L133.036 110.734L130.597 111.875L130.018 110.609L128.927 110.865L128.876 109.973L127.763 109.072L128.085 107.982L126.708 106.189L126.056 106.123L123.947 107.748L124.225 106.145L123.69 105.699L122.372 106.767L123.2 107.931L123.061 108.78L122.416 109.065L121.676 107.982L120.944 107.96L120.263 110.309L119.992 108.948L118.637 108.253L118.036 107.126L117.399 107.323L117.948 108.121L117.582 108.86L116.396 109.899L113.334 108.589L113.444 106.76L112.77 105.845L112.294 107.243L111.357 107.638L110.185 106.072L109.65 106.16L110.111 108.158L109.284 108.911L108.134 107.55L106.061 108.077L105.827 108.67L104.926 108.538L105.007 109.029L103.512 110.375L103.6 111.97L102.406 113.251L101.403 116.215L100.187 116.522L100.627 117.268L99.7112 118.469L100.993 119.647L101.528 119.354L102.238 119.954L103.022 122.332L100.202 125.172L100.422 125.977L101.696 126.657L101.806 127.55L101.154 128.311L101.674 129.335L99.3083 129.965L98.3489 128.128L98.5832 129.606L97.3015 129.687L97.0305 127.601L97.4919 126.138L95.8293 124.908L95.4851 122.764L93.4929 123.313L93.1634 122.742L92.094 122.654L92.1819 121.966L91.3323 121.11L92.0208 120.371L91.4861 118.922L90.7391 119.01L89.5086 117.92L88.3734 116.054L88.5491 114.788L88.0145 113.844L87.6702 113.522L86.7035 113.975L85.7586 112.695L85.5462 110.353L83.4149 110.521L82.2284 111.7L81.0272 111.831L80.8441 112.585L79.9067 112.461L79.7821 111.729L78.9618 111.846L78.6762 110.997L78.3393 112.285L75.9077 110.88L75.6953 108.304L74.6552 107.353L74.9116 106.401L74.0913 106.175L73.6592 105.084L72.6118 104.77L72.209 104.052L73.52 102.172L71.9307 102.874L71.5644 102.589L72.436 102.274L71.5205 101.418L72.209 100.796L71.7915 100.496L72.7143 100.379L71.5351 99.991L71.5205 99.6325L72.2309 99.7276L72.0039 98.4323L70.5317 97.6713L71.0664 96.5809L72.0552 96.2443L71.6157 94.9344L72.7143 93.9246L73.5786 94.6563L75.6147 94.5759V95.2418L76.4423 95.7833L76.8012 97.6493L77.8779 97.5688L78.6835 97.1371L79.0937 95.6003L80.4706 94.7222L78.8813 93.0245L79.9872 93.2294L80.8441 92.6439L81.994 92.9659L83.5541 92.1756L82.8729 90.1339L82.2211 90.1778L81.3788 87.3239L78.808 85.9994L77.8632 82.399L78.1855 81.1477L76.7719 79.9475L76.5375 79.0255L77.6508 79.2523L77.0576 77.9059L77.3285 77.1741L75.8417 76.8814L76.2446 74.9348L74.0107 74.2689L72.5312 71.4735L72.5752 70.3831L74.0986 68.6634L73.1611 65.0411L79.057 58.6307L78.3173 55.3011L78.7787 54.1229L79.665 53.1497L80.2875 54.1742L81.2103 54.6498L82.1039 54.2693L83.8324 55.6816L83.8544 56.4939L83.0853 56.9549L81.2689 60.204L82.9901 60.226L84.411 61.7188L85.451 61.9603L85.4803 63.1897L87.2894 66.7608L86.0077 68.6854L87.7069 68.0487L89.2449 68.6195L88.9959 69.3513L90.7024 69.4099L91.2444 66.7315L92.7386 65.1436L92.1966 65.0704L91.596 63.8995L90.0872 63.5044L89.8968 61.8506L89.0032 61.3383L90.3875 60.0723L89.5599 57.6794L89.9554 56.9183L92.1746 56.1207L92.614 54.9279L92.0354 53.157L93.8079 52.2862L95.3753 50.5006L96.1516 50.4494L97.6384 47.0173L98.7077 46.9076L98.8323 45.1586L100.546 41.9607L100.466 40.4606L99.6745 39.5751L99.8723 37.2115L98.6565 35.6893L99.6379 34.8551L99.7697 32.7403L102.992 32.0158L103.446 33.3257L104.823 34.2843L105.746 32.5281L106.808 32.0085L106.632 33.0769L106.127 33.2672L106.845 33.6989L106.757 39.297L108.141 39.7581L108.874 41.9607L109.987 43.2926L110.324 43.0145L113.158 44.1561L114.726 43.2706L116.044 43.8268L117.077 40.6947L118.622 41.4997L123.471 39.0263L124.174 39.8312L125.192 39.0995L126.847 40.5996L126.283 42.1729L127.045 42.6632L126.957 44.2658L129.096 45.3562L128.707 47.2296L129.601 47.8516L130.407 47.2881L131.6 47.5003L133.622 45.7733L132.824 43.856L130.949 41.668L131.044 40.5703L131.835 40.0654L132.216 38.7702L133.087 38.5945L133.241 37.4822L132.582 37.3359L132.318 36.4284L130.033 36.8309L128.495 35.5649L129.008 34.46L128.59 33.6916L129.037 31.4889L128.664 30.3986L130.773 28.1227L130.846 26.5348L131.879 26.8128L134.098 25.6786L135.057 26.1469L135.958 25.2395L136.303 26.0884Z" fill="#CDCACA"/>
<path d="M263.098 188.727L261.069 187.549L260.205 185.851L258.682 184.585L258.066 185.697L256.558 185.514L251.021 182.434L236.013 169.283L231.992 167.161L230.213 166.986L229.356 169.247L229.524 172.269L227.679 172.994L227.283 174.53L225.144 174.267L225.284 173.506L224.698 173.279L224.192 171.442L222.2 172.269V170.703L220.537 169.737L220.245 170.725L217.447 170.41L217.417 170.337L218.304 171.962L217.117 171.954L216.868 171.354L215.411 171.932L214.671 174.472L212.767 176.001L212.62 177.589L212.715 177.662L214.29 178.292L215.967 180.546L214.429 180.56L214.649 182.155L213.975 182.112L213.528 179.389L213.206 181.672L212.305 182.155L211.236 181.951L211.382 182.543L210.694 183.312L209.002 183.919L210.064 185.551L210.584 186.407L212.847 186.378L213.103 186.788L214.627 185.558L216.004 185.47L215.63 186.041L215.982 187.095L213.843 189.071L214.839 190.11L215.887 189.576L216.817 190.842L217.857 189.312L218.582 189.407L219.19 190.447L219.864 190.483L220.076 189.854L220.743 190.161L225.401 195.496L226.961 194.552L228.594 195.152L229.561 193.183L231.084 193.593L230.813 195.064L231.472 195.679L230.154 196.915L230.191 197.53L231.853 199.696L232.132 201.826L231.678 202.338L233.054 203.319L233.545 205.821L234.563 206.326L234.461 208.448L233.274 209.583L233.765 210.71L235.281 211.017L235.698 212.268L235.523 214.295L236.072 215.839L235.435 216.322L236.123 217.749L235.713 218.84L237.683 220.018L237.83 220.654L238.643 220.75L238.731 223.706L239.617 222.711L239.632 221.459L240.584 222.023L241.609 221.006L243.814 222.689L245.645 225.572L247.6 225.126L248.516 223.794L249.548 226.443L249.365 227.775L248.692 229.165L248.413 228.602L247.007 229.172L246.824 230.636L249.226 231.214L249.622 230.358L250.42 230.285L253.115 232.597L254.338 232.956L255.715 231.982L256.126 232.319L256.565 230.577L258.301 230.292L258.521 228.47L259.495 227.387L259.678 226.326L261.201 227.16L262.93 226.348L263.42 227.043L264.409 226.919L265.881 226.231L266.218 224.613L266.716 224.335L268.752 224.196L270.305 223.165L273.96 222.381L272.349 217.479L271.221 211.529L262.974 191.105L263.098 188.727ZM218.289 186.356L217.747 186.166L217.608 186.122L217.842 185.609L218.26 185.851L218.333 186.239L218.289 186.356Z" fill="#CDCACA"/>
<path d="M306.933 264.415L310.918 266.53L314.572 267.211L317.48 270.387L319.794 271.287L319.948 273.68L318.388 275.926L318.989 278.07L318.286 279.234L319.018 280.127L318.469 280.507L319.201 281.598L320.564 282.22L319.062 282.966L318.564 284.064L318 283.5L317.978 284.1L316.447 284.766L315.481 286.537L313.108 285.439L312.192 286.552L312.859 287.137L312.338 291.22L313.481 291.711L314.939 293.394L312.756 294.931L310.815 295.084L309.658 296.255L306.721 295.004L305.461 297.126L304.084 297.55L303.396 297.009L301.953 297.177L301.982 297.865L301.213 297.916L299.609 299.343L298.716 298.055L296.269 298.436L295.398 297.77L295.119 296.606L289.253 294.894L287.766 294.096L287.576 293.357L286.272 293.35L286.125 292.735L283.599 292.684L283.313 293.694L281.636 292.296L280.024 295.245L281.035 296.467L281.233 298.238L280.281 297.609L278.706 297.96L277.197 296.167L277.402 295.055L276.289 294.492L276.846 293.548L276.106 292.925L278.201 291.418L277.307 290.642L277.93 290.511L278.083 289.815L277.08 288.71L277.578 288.249L277.505 287.247L276.479 284.62L275.022 283.361L276.56 282.981L277.93 283.698L278.135 282.629L279.109 282.593L279.746 280.836L280.596 280.771L281.174 282.285L281.636 280.353L283.093 280.317L283.584 279.409L283.767 280.149L284.39 280.244L284.697 279.49L283.584 278.839L282.668 276.241L282.976 275.582L284.602 275.473L285.649 273.848L287.781 272.106L288.469 273.028L289.377 272.933L290.095 274.536L290.513 274.697L291.282 273.731L293.069 274.916L293.874 275.699L294.658 278.839L294.079 279.307L295.574 279.578L299.06 275.824L300.32 273.094L302.048 271.879L302.649 269.611L304.333 267.533L306.413 266.098L305.747 265.484L306.604 264.13L306.933 264.415Z" fill="#CDCACA"/>
<path d="M68.2979 34.4966L69.4332 35.6455L68.9791 36.7578L69.5211 38.1994L69.2574 41.668L67.8292 43.5341L68.9278 45.3562L68.4444 46.2197L69.4844 47.1491L71.7183 47.8809L73.3296 50.8007L74.4136 51.2617L74.1865 52.0374L74.7432 53.0473L76.0689 53.0033L77.5483 54.1376L78.7495 54.0425L78.2881 55.2206L79.0278 58.5503L73.1319 64.9607L74.0694 68.5903L72.5459 70.31L72.502 71.4077L73.9815 74.2031L76.2153 74.869L75.8125 76.8082L77.2993 77.1009L77.0283 77.8327L77.6216 79.1865L76.501 78.9523L76.7354 79.8817L78.1489 81.0745L77.8267 82.3259L78.7715 85.9262L81.3422 87.2507L82.1845 90.1047L82.8364 90.0608L83.5175 92.1025L81.9575 92.8928L80.8003 92.5781L79.9433 93.1635L78.8374 92.9513L80.4267 94.6491L79.0498 95.5272L78.6396 97.0639L77.834 97.4957L76.7573 97.5762L76.3984 95.7102L75.5708 95.1686L75.5781 94.5027L73.542 94.5832L72.6704 93.8514L71.5792 94.8613L72.0186 96.1712L71.0225 96.5078L70.4952 97.5982L71.9673 98.3592L72.1944 99.6545L71.4766 99.5593L71.4913 99.9106L72.6778 100.298L71.7549 100.416L72.1724 100.723L71.4766 101.345L72.3921 102.201L71.5206 102.516L71.8868 102.801L73.4761 102.099L72.1651 103.979L72.5679 104.696L73.6153 105.018L74.0474 106.109L74.8677 106.336L74.604 107.287L75.6514 108.231L75.8638 110.814L78.2881 112.212L78.625 110.931L78.918 111.773L79.7383 111.656L79.8701 112.395L80.8076 112.512L80.9907 111.765L82.1918 111.634L83.3784 110.456L85.5097 110.28L85.7221 112.629L86.6669 113.91L87.6337 113.456L87.9706 113.778L88.5053 114.722L88.3295 115.988L89.4647 117.854L90.6952 118.944L91.4422 118.856L91.9696 120.313L91.2811 121.052L92.1307 121.908L92.0428 122.596L93.1048 122.691L93.4344 123.262L95.4266 122.713L95.7708 124.857L97.4334 126.086L96.9793 127.55L97.2503 129.636L96.8841 129.497L96.9061 133.214L96.95 134.275L94.3719 135.351L93.1854 134.465L93.222 133.382L92.1527 132.76L91.098 132.972L89.9261 130.462L88.2562 130.645L87.7289 129.899L86.5497 130.075L86.0883 131.289L84.9384 132.211L85.9931 133.353L86.2128 136.075L85.1581 136.646L84.5209 135.775L82.851 135.995L82.873 137.07L81.5986 138.139L81.8623 139.222L80.9321 139.566L80.6464 137.956L80.0166 137.978L80.2363 137.319L78.9253 135.168L77.7388 135L75.1387 134.846L74.2378 136.258L74.8164 136.924L72.8096 139.149L72.0772 138.6L69.7261 138.688L69.4771 138.058L68.6422 139.31L67.5655 138.549L66.9796 138.827L66.5694 140.437L65.61 140.956L63.3541 139.046L61.9992 138.907L61.2814 137.795L60.1462 138.702L60.1755 140.085L59.1647 140.422L60.1681 142.815L59.6188 144.227L57.2897 145.515L57.4582 146.979L56.7404 148.157L55.7956 148.04L55.5759 149.635L54.5066 149.16L54.199 149.555V150.286L55.1291 151.245L54.2136 152.145L54.8435 152.95L54.3015 154.201L55.3708 155.131L55.4074 156.551L54.5432 157.685L53.5032 158.043L52.3826 157.297L51.0349 158.402L51.9944 158.856L52.4045 159.492L52.0896 160.026L50.6467 159.522L49.4529 160.166L42.8612 158.058L41.4403 158.848L41.096 159.975L41.7625 161.029L42.722 161.014L41.5868 162.236L41.0008 162.039L41.0448 160.949L39.2577 158.541L39.9169 156.265L38.1005 156.192L37.4559 157.59L35.3319 157.238L31.538 158.841L30.4028 158.585L30.1684 159.536L28.9673 158.856L27.6269 159.361L27.0996 157.765L24.7119 158.043L23.3789 156.426L22.4048 156.587L21.2696 154.889L20.3028 154.567L19.607 154.948L17.3805 153.44L15.4176 153.726L14.4947 153.096L14.0406 150.777L12.6124 149.95L12.7443 149.203L11.5138 148.069L11.3454 147.089L10.0124 146.481L10.2174 143.386L12.3121 142.976L9.66812 140.32L8.84782 137.663L9.67545 136.419L10.8473 136.295L11.7116 135.446L12.3561 133.119L13.0372 133.06L12.3195 131.304L12.8395 130.038L13.7843 129.321L17.1388 129.533L16.7872 128.157L15.4322 127.36L15.0294 125.003L14.253 124.155L15.1026 122.347L14.4728 121.513L11.8507 120.305L10.8986 121.257L9.14078 120.92L6.88495 119.391L6.76776 118.739L4.91475 118.015L5.06123 116.493L4.63643 116.237L5.42744 115.11L4.40206 113.514L4.90743 113.112L4.6584 112.263L1.99974 111.963L1.54564 109.219L0.87182 109.029L0.227295 107.426L1.97044 106.343L2.26341 105.553L4.58516 105.684L5.54463 104.543L8.53288 105.794L8.5988 106.262L10.2541 105.758L10.2614 104.074L12.2316 104.001L12.5392 102.896L14.3043 101.345L15.2491 101.499L16.15 100.957L16.8604 101.784L18.4278 99.8667L18.9625 99.9399L19.3506 98.0153L18.4205 95.615L19.1382 95.4833L19.4385 94.3564L20.4053 93.8514L20.4127 92.7757L21.3208 91.4585L18.5816 89.9876L18.1275 88.1948L19.4239 85.5896L19.6876 87.6752L20.3467 87.1776L22.5952 87.9606L24.3457 85.7579L26.3965 85.7067L27.7734 85.0554L28.4765 85.5457L31.0693 83.4674L31.7504 82.3185L32.6513 82.0331L34.0063 82.3771L35.5297 81.5502L37.0018 82.4649L37.0971 83.1015L38.1298 82.6186L39.5726 83.5699L41.2718 83.2918L41.7699 83.7382L45.3514 81.1989L47.285 81.0526L48.0247 81.5282L48.5594 79.3036L49.4383 79.128L48.1053 76.3984L49.3211 74.3275L49.0574 73.4493L47.8709 73.0103L46.6185 70.7417L47.1311 67.0462L46.6185 64.0752L47.1458 63.5776L47.219 60.9212L48.2957 59.765L51.3352 59.8528L52.1482 58.9966L52.2361 57.8843L53.0857 57.277L52.595 55.7329L52.9905 54.2766L55.715 53.64L56.1252 52.5936L57.5241 51.8618L57.4362 50.7714L58.0148 49.9372L57.0114 47.5369L55.9348 46.2124L54.6823 45.627L57.0187 43.3072L58.0807 43.6292L59.6847 42.9926L60.2267 41.5802L61.633 40.9582L61.6549 39.9703L63.3981 39.2458L63.7423 38.1482L62.6803 37.6359L63.2516 36.7285L63.984 36.67L65.4415 35.265L68.2979 34.4966Z" fill="#CDCACA"/>
<path d="M352.834 270.16L355.653 270.709L359.25 273.445L358.759 274.572L359.682 276.321L359.623 277.492L359.337 278.934L358.341 279.929L354.877 282.241L354.665 283.032L348.52 286.874L348.63 291.037L350.461 294.499L352.995 296.336L359.857 299.511L362.04 301.224L367.973 303.456L374.147 307.181L381.42 309.493L382.636 310.539L383.954 310.576L384.284 311.125L384.972 310.825L385.155 311.359L388.224 312.691L393.241 314.33L400.301 318.948L402.96 322.189L404.425 322.855L407.765 325.995L416.415 329.463L420.955 332.61L425.064 333.1L425.885 334.454L425.526 335.076L428.155 335.164L427.913 335.962L429.056 337.374L428.66 338.867L430.308 340.901L432.052 342.489L436.358 344.889L443.228 352.251L444.693 355.515L444.525 356.803L445.66 359.452L446.7 360.088L446.326 360.44L446.758 361.647L445.499 362.803L445.14 364.545L443.682 365.555L442.628 367.875L441.983 371.211L442.005 375.602L441.192 376.744L440.306 376.978L437.501 374.812L433.765 374.029L429.056 370.202L427.064 366.733L427.95 366.367L427.818 364.94L426.295 364.12L427.401 363.308L427.701 361.479L424.325 357.286L424.566 355.888L423.819 354.285L421.974 352.756L415.331 351.783L408.9 352.28L406.593 350.612L404.615 350.4L398.258 346.726L397.438 346.748L397.657 346.082L399.064 345.467L399.225 344.384L398.236 343.184L396.559 343.265L396.134 342.079L394.047 341.296L391.249 341.713L388.685 343.104L386.071 345.416L384.511 347.985L383.939 346.624L382.658 345.548L382.394 344.362L381.097 343.579L379.852 343.901L379.222 343.206L379.926 341.684L379.076 341.04L379.398 340.447L378.695 339.708L379.01 337.593L379.472 337.257L378.798 335.749L379.457 333.108L378.563 332.076L379.31 331.703L377.172 330.078L376.784 330.627L375.927 330.115L375.802 329.39L375.07 329.858L373.832 329.324L373.751 330.598L373.129 329.624L372.418 329.815L372.47 331.198L370.976 329.39L368.419 332.347L367.299 332.039L366.735 330.766L361.923 326.346L359.77 321.619L358.305 321.143L356.745 322.577L355.58 321.472L351.486 319.731L351.046 318.904L352.152 319.101L353.471 317.601L353.244 316.467L353.712 315.706L352.365 314.608L351.918 314.915L351.471 313.196L350.548 312.976L350.373 312.23L349.098 312.01L347.414 310.803L346.374 311.425L345.78 311.213L345.912 311.769L344.689 312.083L344.799 312.779L343.569 313.452L342.499 312.676L340.661 313.335L337.255 312.764L335.834 313.042L334.845 313.942L335.087 314.842L332.45 313.525L331.301 313.628L329.763 312.31L328.517 313.254L326.445 312.383L325.639 313.042L324.167 311.988L323.632 310.605L322.482 310.042L323.083 308.586L324.562 307.707L323.94 305.966L325.119 305.219L324.196 304.173L323.01 304.407L322.248 303.324L319.743 303.426L319.589 301.839L317.414 301.063L316.96 299.146L317.575 298.289L318.352 298.158L317.956 297.28L318.557 296.709L318.425 296.123L316.337 295.538L315.012 293.46L313.554 291.777L312.412 291.286L312.939 287.203L312.265 286.61L313.181 285.498L315.554 286.595L316.52 284.832L318.051 284.166L318.073 283.559L318.637 284.122L319.135 283.024L320.644 282.278L319.282 281.663L318.549 280.566L319.091 280.185L318.366 279.292L319.069 278.129L318.469 275.985L320.029 273.745L319.875 271.352L327.514 271.821L328.43 272.567L330.766 272.655L338.039 271.301L340.507 271.996L343.532 271.843L352.834 270.16Z" fill="#CDCACA"/>
<path d="M65.7489 409.608L66.1518 410.311L67.807 409.835L69.3597 412.447L68.5248 416.56L67.3822 417.211L65.3315 413.296L64.9213 411.211L65.7489 409.608ZM63.4125 406.293L63.3173 410.289L62.1308 410.567L61.1421 409.872L61.1787 408.635L60.0508 407.969L61.8378 406.33L63.4125 406.293ZM116.879 321.531L117.282 321.904L115.458 323.068L115.07 322.767L117.091 321.106L116.879 321.531ZM60.395 318.684L59.9848 319.101L59.9409 318.369L60.395 318.684ZM63.9179 311.622L64.1157 312.449L65.0239 313.057L64.4892 313.598L64.3647 315.033L62.3652 314.103L60.7685 316.32L61.2519 316.181L61.8525 317.367L61.5083 318.369L59.8237 318.157L60.5488 316.35L60.0874 316.284L60.2046 315.464L61.2885 315.011L61.9257 313.84L62.6289 313.759L62.2333 312.332L63.9179 311.622ZM107.16 305.527L107.79 306.646L106.881 308.168L107.511 308.337L105.827 308.593L106.625 305.432L107.16 305.527ZM102.231 305.051L102.941 305.497L102.165 306.185L102.231 305.051ZM98.0777 304.714L99.9234 306.229L99.3741 307.605L100.15 308.417L101.945 308.293L102.143 307.356L103.058 307.254L103.454 308.586L103.871 308.695L105.321 308.71L104.604 309.639L105.526 309.8L106.186 310.81L106.061 312.947L107.152 311.293L106.947 310.452L108.771 310.554L108.998 309.712L109.672 310.62L109.262 310.861L109.979 310.905L109.782 311.805L110.756 311.761L110.946 312.581L110.214 313.693L109.811 313.203L109.525 313.474L109.738 314.528L109.13 314.908L108.566 317.089L109.13 317.06L109.254 316.072L110.543 315.684L110.155 317.33L111.122 317.374L111.093 316.774L111.43 316.994L111.789 316.416L114.389 317.755L113.876 318.296L112.287 317.484L111.276 318.355L111.701 319.116L110.756 320.382L110.998 321.062L109.005 320.77L108.339 321.07L108.998 321.414L110.551 321.45L111.181 321.706L110.902 322.006L111.613 322.841L112.697 321.341L113.62 321.516L112.536 322.892L114.176 323.704L113.788 324.699L115.011 324.429L116.549 325.49L116.015 325.9L115.282 325.636L114.982 326.346L115.399 326.909L114.755 327.246L114.652 328.168L116.381 329.88L116.264 331.871L117.728 333.708L117.282 335.581L117.75 337.447L119.098 338.706L119.303 340.03L120.519 340.791L118.219 347.502L115.333 349.96L112.96 354.015V356.525L113.964 359.488L115.443 361.471L116.952 362.35L116.937 363.564L115.202 367.823L115.319 369.375L116.22 369.602L116.373 370.15L115.033 371.504L115.575 373.824L114.572 377.241L114.901 380.651L113.7 383.601L114.088 387.633L113.173 390.882L113.7 392.843L111.891 398.331L112.118 399.875L113.202 400.761L112.06 401.141L111.276 402.341L110.543 405.73L111.166 406.666L110.375 408.847H109.628L108.954 409.674L109.049 410.625L108.317 410.011V408.949L107.621 408.686L105.849 409.286L100.546 404.917L97.2941 404.237L95.734 405.181L95.3824 406.432L93.5075 404.925L91.9474 405.613L90.0871 407.925L90.0505 410.962L91.1271 412.462L90.2116 415.923L89.8088 415.521L89.2741 415.792L84.0813 421.017L83.1584 420.98L82.426 420.021L81.95 420.643L81.0125 419.15L78.9764 417.987L78.8518 418.748L76.8304 419.246L77.0428 420.007L76.2444 420.409L76.6107 421.382L75.9808 421.595L76.1932 420.124L74.6917 420.204L75.2264 417.789L73.3661 416.099L73.0511 412.982L71.8353 412.279L69.6967 412.235L70.0336 410.881L69.5136 409.747L69.0448 409.308L68.2392 409.74L68.2099 407.61L65.661 404.881L65.5878 404.164L67.7777 402.115L68.1659 401.105L67.602 399.122L66.5912 398.763L66.4447 397.512L65.8442 397.014L67.2943 394.724L67.2577 393.86L66.1664 393.143L66.3202 392.411L68.8178 388.723L69.4843 386.03L68.6786 384.457L69.0009 382.979L68.5468 382.152L68.9203 380.981L68.5541 378.544L69.0521 377.929L70.3558 380.176L70.9271 380.132L71.1761 378.617L72.3626 376.597L72.6556 373.465L71.5423 371.438L69.7772 371.329L68.3783 372.763L66.7743 371.248L66.5912 367.962L67.3456 365.804L66.0126 365.028L66.9647 364.238L67.331 364.75L68.8983 364.267L70.246 362.833L70.3046 361.728L69.0082 358.127L69.9823 352.756L69.118 351.102L67.6679 350.261L66.2397 350.18L66.1078 349.126L66.9428 346.667L65.8954 342.731L64.5698 342.262L63.1489 337.842L61.164 338.237L61.0615 338.911L59.5674 338.947L59.5527 337.659L60.102 337.279L59.3037 336.444L57.978 338.53L57.5679 338.398L57.3555 336.21L58.8569 335.522L59.6479 333.195L58.5054 332.705L56.9233 330.905L58.2051 329.185L58 327.766L58.9961 326.902L60.3437 323.199L58.5859 320.755L59.6113 318.999L60.8711 319.906L60.688 321.999L63.7128 325.241L65.9467 325.687L67.6166 325.409L69.0375 326.448L73.0218 325.863L78.0242 321.823L81.6936 321.282L84.7258 317.835L84.6452 316.877L86.9011 315.523L89.9113 311.44L91.1198 310.788L91.5959 311.322L93.4928 310.957L93.9396 309.939L95.1701 309.888L95.7706 309.215L95.214 307.817L95.7047 306.222L94.7599 306.061L94.8698 305.373L95.6388 305.893L96.6935 305.329L96.7374 306.002L98.0777 304.714ZM105.168 304.231L106.237 305.958L105.922 306.8L103.754 307.137L103.424 306.215L104.508 305.395L104.413 304.59L104.918 305.132L105.168 304.231Z" fill="#50B7C5"/>
<path d="M221.914 578.152L225.51 578.525L225.745 579.747L221.365 578.569L221.914 578.152ZM200.367 517.429L202.081 518.307L202.52 518.036L203.992 519.28L204.08 521.007L203.047 522.222L201.67 522.127L199.239 519.148L199.305 518.007L200.367 517.429ZM218.824 470.243L218.135 467.843L219.102 467.324L218.824 470.243ZM213.623 465.004L214.202 466.094L215.03 465.794L215.828 466.365L215.821 467.207L215.286 467.338L214.598 466.592L212.796 466.797L212.188 465.772L213.623 465.004ZM204.461 463.218L205.435 465.311L203.611 464.762L203.099 463.182L204.461 463.218ZM335.636 448.583L337.409 449.768L339.416 450.251L337.394 450.807L336.288 451.722L335.724 453.837L336.34 453.712L333.322 459.267L326.174 468.582L326.152 469.79L324.936 470.617L325.082 471.29L322.665 474.407L322.387 475.227L322.922 476.485L322.175 479.105L321.281 480.247L321.332 482.823L319.047 484.982L317.919 487.082L318.351 494.839L320.798 496.353L321.904 496.631L322.402 496.141L324.335 498.505L323.932 499.061L323.237 498.578L323.097 499.8L322.761 498.432L321.918 498.724L321.677 501.073L322.409 502.786L323.412 502.456L323.83 503.064L323.251 502.822L322.973 503.232L323.464 504.425L324.511 505.018L325.785 504.959L325.859 507.198L325.068 506.898L325.002 508.062L325.514 508.384L326.225 507.967L327.28 509.789L325.969 509.203L325.024 509.584L324.489 511.165L322.526 511.633L320.409 513.967L318.242 519.309L319.933 524.644L319.597 525.486L319.003 525.12L317.7 526.356L315.356 523.876L313.093 524.285L311.445 522.88L310.082 522.529L306.457 523.781L305.043 523.005L303.044 522.998L301.074 521.132L299.228 520.4L295.661 519.939L294.365 518.541L293.764 515.994L291.413 511.779L287.004 507.315L283.349 505.596L279.753 504.798L275.901 504.886L273.557 505.508L272.451 505.193L270.473 503.181L267.771 502.939L264.387 500.847L263.691 499.295L260.417 496.609L259.304 496.895L258.747 496.28L256.477 496.214L254.712 494.37L251.724 492.892L250.757 491.743L249.819 491.677L249.043 489.928L245.798 486.782L242.459 486.218L240.327 486.723L238.159 483.467L236.475 482.889L231.304 482.706L227.371 483.679L224.866 479.874L223.277 478.864L221.577 478.974L219.951 477.093L219.812 474.978L218.025 472.292L219.453 471.473L220.288 468.831L219.248 467.258L220.764 465.136L220.618 463.665L221.526 463.262L220.442 462.091L221.548 461.813L223.496 459.603L224.734 459.83L226.045 459.311L226.931 458.425L226.843 457.606L228.733 457.679L229.722 456.252L228.909 454.649L229.502 453.873L229.751 454.495L230.908 454.364L230.945 455.688L231.736 456.464L231.707 457.635L232.534 459.106L235.874 461.689L239.17 460.781L242.524 458.696L241.587 456.281L242.305 456.113L242.788 455.198L242.495 454.7L243.682 453.698L246.802 454.803L248.347 454.173L248.669 453.178L249.951 453.369L251.548 452.198L252.031 453.427L253.401 454.247L253.774 455.82L253.232 456.654L254.001 457.73L256.411 458.403L258.059 458.001L258.711 457.181L259.802 457.488L259.824 459.684L260.959 460.986L266.409 463.928L268.445 464.243L272.055 463.262L275.219 461.396L278.047 460.84L279.687 461.923L281.277 462.091L282.661 461.389L287.942 462.443L291.15 462.025L293.171 460.891L295.163 461.191L301.184 459.267L305.285 454.891L306.867 455.557L310.617 454.561L311.518 453.639L313.642 455.505L316.411 455.513L317.026 456.669L318.461 456.962L321.31 455.396L322.958 453.529L323.793 451.202L323.156 449.863L323.771 449.819L324.284 450.939L323.888 452.483L325.536 452.944L329.74 451.795L334.355 448.685L335.636 448.583ZM313.166 442.911L314.55 443.972L314.77 445.224L314.008 445.356L312.763 444.558L312.346 443.219L313.115 442.231L313.488 442.597L313.166 442.911ZM313.246 437.994L313.261 439.413L313.928 439.889L312.99 440.196L312.917 441.909L310.8 439.684L311.408 438.089L313.246 437.994ZM290.703 436.428L290.659 437.467L290.022 437.503L289.934 436.662L290.703 436.428ZM307.951 435.059L309.833 435.147L309.811 437.247L309.233 437.379L306.984 436.091L307.387 435.052L307.951 435.059ZM297.705 434.957L298.745 435.162L299.389 436.377L297.902 436.23L297.368 435.367L297.705 434.957ZM317.524 432.11L317.458 432.864L316.777 433.091L316.879 432.213L317.524 432.11ZM246.86 428.839L247.175 429.051L246.633 429.681L245.381 429.79L245.637 428.898L246.392 428.503L246.86 428.839ZM323.141 424.192L323.793 424.675L322.673 426.073L321.713 425.122L323.141 424.192Z" fill="#CDCACA"/>
<path d="M138.749 249.904L139.379 251.221L138.822 251.755L138.082 251.631L137.965 250.058L138.749 249.904ZM160.231 247.892L161.673 249.377L161.512 251.587L160.069 249.801L159.469 249.706L160.231 247.892ZM129.974 236.271L130.765 237.815L130.289 238.898L128.663 238.181L129.711 237.69L129.974 236.271ZM142.667 223.633L143.641 224.657L143.077 226.216L143.312 228.17L141.466 229.165L143.26 230.409L142.858 231.785L141.049 231.2L140.375 229.202L139.811 228.931L138.917 229.107L138.969 230.329L138.309 229.158L137.701 230.373L136.068 229.648L135.907 230.856L133.915 230.314L132.706 230.504L132.846 230.892L131.52 230.08L130.765 228.799L130.839 227.643L132.186 226.611L134.274 226.56L136.134 227.694L136.259 227.116L137.042 226.911L136.779 226.494L137.255 226.15L136.808 225.536L139.467 226.172L138.91 226.882L140.302 227.131L142.257 223.465L142.667 223.633ZM120.636 213.571L121.142 215.02L119.801 216.791L119.127 215.818L119.501 214.134L120.402 213.183L120.636 213.571ZM210.789 175.496L210.848 175.613L211.067 176.418L209.471 177.245L208.467 176.082L208.665 175.262L210.694 175.277L210.789 175.496ZM115.026 146.481L117.663 144.952L120.16 141.029L124.079 140.598L125.866 141.234L126.232 142.142L127.001 142.303L126.605 144.227L127.433 145.149L130.568 147.301L132.355 146.928L136.478 151.289L138.221 150.418L139.825 151.318L140.997 151.34L143.158 153.565L144.381 153.353L145.275 153.843L145.238 154.853L146.512 156.024L146.688 157.158L149.193 159.39L150.416 159.082L150.365 158.102L151.097 157.202L155.177 157.297L158.817 160.246L160.487 160.619L160.985 161.285L160.751 161.98L161.234 162.2L164.793 158.204L165.086 158.87L164.64 159.631L165.775 160.473L167.796 160.707L170.243 159.646L172.506 160.297L174.366 160.18L174.183 159.39L172.037 158.146L172.118 157.458L175.04 157.355L176.71 155.841L176.856 155.058L178.68 154.867L180.482 153.118L181.456 154.004L181.705 155.577L182.73 155.855L183.997 157.297L184.884 157.487L185.638 156.755L187.542 157.143L187.689 157.904L186.627 159.441L188.575 159.704L192.581 158.9L192.332 160.868L190.845 162.471L190.531 163.927L189.3 164.395L189.447 165.193L188.956 165.127L188.773 165.969L190.362 167.491L190.12 168.683L191.453 169.576L191.256 171.815L193.878 173.279L195.342 175.043L198.763 175.196L199.144 176.148L200.132 176.279L200.286 176.989L201.487 177.758L202.264 177.45L203.333 178.109L204.007 177.926L204.82 178.855L206.08 178.197L207.12 178.314L208.174 177.728L209.31 179.419L209.918 177.977L211.412 178.255L212.613 177.604L212.737 177.699L214.312 178.328L215.989 180.582L214.451 180.597L214.671 182.192L213.997 182.148L213.55 179.426L213.228 181.709L212.327 182.192L211.258 181.987L211.404 182.58L210.716 183.348L209.024 183.956L210.086 185.588L208.27 187.878L207.706 189.773L206.102 189.642L205.699 190.051L205.574 191.339L207.486 192.422L207.413 192.832L205.853 193.491L205.113 194.735L204.315 194.486L203.062 195.759L203.304 196.491L204.871 196.33L204.952 198.277L205.999 197.882L206.475 198.321L207.215 199.996L206.783 201.248L207.076 201.906L208.709 202.521L209.368 200.889L210.496 201.811L205.611 204.87L204 203.97L203.399 204.241L203.765 205.214L203.04 207.212L199.246 209.444L198.887 210.41L199.532 212.195L199.29 213.088L199.869 214.237L200.484 213.469L201.414 214.464L199.642 221.672L200.44 222.221L200.55 223.545L199.612 223.604L198.184 225.316L196.368 225.214L195.181 225.997L194.808 227.468L194.295 226.502L193.416 226.158L192.567 227.943L195.335 230.109L194.573 231.836L193.673 231.829L193.973 233.746L194.742 234.097L194.801 234.888L193.775 235.561L192.772 235.422L192.105 236.988L191.16 236.805L190.062 237.617L189.915 238.408L188.641 239.052L188.048 238.883L187.557 239.535L186.722 238.766L186.268 239.008L186.597 240.296L185.594 241.715L187.637 243.113L187.703 245.623L182.723 245.682L181.368 248.718L175.238 247.291L174.381 246.596L172.381 247.123L172.476 248.206L171.751 248.557L171.583 249.45L170.25 249.56L169.254 248.316L168.067 247.943L167.745 246.055L168.463 245.155L169.085 245.791L170.726 245.652L171.466 244.145L171.693 241.862L170.426 239.249L169.137 239.513L168.419 237.405L167.613 236.622L167.767 235.905L164.735 234.61L164.054 231.887L162.435 230.212L159.19 228.909L156.708 228.616L154.452 227.138L155.799 226.311L155.902 223.64L156.554 222.696L156.07 221.621L154.759 220.64L152.416 219.55L150.321 219.323L147.589 219.747L147.303 221.042L145.612 220.472L145.179 217.588L146.417 217.003L147.237 212.459L146.754 204.321L145.897 202.199L144.315 200.545L142.975 196.557L142.184 196.484L141.342 194.171L139.423 192.722L138.236 189.554L138.47 187.827L137.108 182.178L137.548 181.534L137.365 178.599L136.017 172.211L132.326 166.583L129.308 163.912L127.726 163.151L129.359 161.292L129.557 160.283L127.821 159.207L126.517 160.305L126.876 159.404L126.188 158.387L126.049 156.66L123.17 156.763L124.079 155.314L124.628 155.27L123.551 154.523L122.028 155.804L122.343 153.806L121.749 153.294L121.684 151.413L119.787 150.638L116.835 148.347L116.095 146.459L115.026 146.481Z" fill="#CDCACA"/>
<path d="M209.639 0.519982L210.907 1.51521L210.057 2.11527L209.661 3.70323L207.486 3.93009L206.519 4.85945L207.142 7.64022L208.314 8.75253L207.362 10.1576L209.024 10.4722L210.079 12.17L211.082 11.3869L212.371 11.687L213.529 14.0433L212.701 15.3971L212.657 17.0948L215.308 17.5705L216.312 20.6879L220.003 22.8174L218.201 23.4906L216.978 24.8591L216.334 24.7127L216.612 25.686L216.239 26.0226L215.316 26.0665L214.774 25.4152L212.584 26.1031L211.698 25.5469L209.251 27.4862L209.171 25.8323L208.035 25.1152L207.428 25.3274L204.549 23.0808L204.769 24.7859L203.663 26.7471L203.787 27.8374L201.986 30.706L201.561 30.1425L200.711 30.1864L199.847 31.0499L198.697 30.8158L195.13 32.6159L195.042 33.8161L197.291 34.1234L197.73 35.1406L196.046 37.131L195.848 39.8094L195.255 39.2678L193.526 40.3143L195.658 42.0998L196.082 43.1243L195.592 44.5147L196.17 45.027L197.752 44.6611L198.075 46.0807L198.543 45.7807L199.43 46.2125L198.851 47.6541L200.631 49.2786L200.184 50.4495L199.378 50.1275L198.126 53.018L195.057 54.0864L193.424 53.9108L192.875 54.4816L192.391 53.9181L190.384 54.5548L190.377 56.033L191.058 57.1526L189.549 57.599L190.091 58.0966L189.557 58.6893L190.392 60.1675L189.725 61.536L186.642 61.3164L186.246 59.2601L184.862 58.8211L183.287 59.0333L181.28 60.6944L178.629 60.5261L178.907 62.6117L177.963 62.7288L177.465 63.8557L177.721 64.5802L175.904 63.5996L175.853 63.0288L175.868 64.024L174.095 63.8923L173.466 67.4854L171.744 69.5563L172.184 71.2833L171.049 71.1735L171.144 73.808L169.313 76.2741L168.141 76.1204L166.727 74.7739L165.526 75.4179L165.204 74.5617L163.856 76.5009L163.497 75.7399L162.399 76.9766L161.307 76.296L161.783 75.4618L160.282 74.7227L158.678 74.7154L160.282 71.7663L159.711 70.6613L160.648 69.8563L158.685 68.6416L155.785 68.0781L155.499 68.7147L154.569 67.9903L151.632 68.583L151.281 70.1564L149.838 70.2003L148.263 71.1809L147.296 71.0857L146.996 70.4491L147.501 69.4319L145.853 68.7294L145.473 65.5754L146.139 64.0387L145.187 62.5824L145.304 61.0969L144.03 60.8627L143.993 60.1309L144.411 58.7918L145.29 58.0966L145.026 56.7062L147.465 53.7278L148.146 50.4934L147.37 49.3298L149.032 46.2856L148.659 44.7269L148.065 44.383L148.71 43.4536L148.27 41.9754L146.337 41.0461L148.234 39.1873L149.677 39.0995L150.768 37.958L150.153 36.9481L150.321 35.3382L149.567 34.3429L147.633 33.0477L144.872 32.8282L144.037 30.8597L144.77 30.2084L145.421 26.4982L143.751 24.9761L142.074 25.203L141.459 22.532L142.587 21.1343L142.038 19.8537L143.642 18.5804L142.748 16.6997L143.803 16.1143L144.872 13.0847L145.692 13.7433L147.743 13.5969L147.472 14.2409L151.933 12.1626L152.929 12.7261L152.921 13.4652L155.243 14.4092L155.573 15.0019L154.291 16.9339L155.272 17.1022L156.466 16.5021L157.492 17.6144L158.356 17.2558L160.172 18.3169L161.388 17.6803L165.233 18.0901L165.922 15.9972L167.599 15.119L167.145 13.3335L168.192 11.4162L168.09 10.099L168.749 9.14769L169.708 9.27941L170.572 8.63544L170.675 7.20847L171.591 6.93771L172.264 7.3841L176.49 5.75222L177.113 6.17666L177.897 5.83272L179.647 7.2597L181.017 6.68159L182.482 4.69114L184.628 6.24252L187.704 4.60333L189.374 5.71563L191.131 5.75954L191.769 6.79867L192.523 7.01089L193.827 5.80345L195.87 5.70832L198.814 3.43979L199.994 3.38125L201.041 2.5397L202.674 2.67874L203.407 1.87378L204.747 2.01282L205.582 0.959051L206.366 1.24445L208.841 0.197998L209.639 0.519982Z" fill="#CDCACA"/>
<path d="M218.128 186.59L217.747 186.166L217.608 186.122L217.784 185.624L218.267 185.851L218.34 186.239L218.128 186.59ZM210.049 185.507L210.569 186.363L212.832 186.334L213.089 186.744L214.612 185.514L215.989 185.427L215.616 185.997L215.967 187.051L213.828 189.027L214.825 190.066L215.872 189.532L216.802 190.798L217.842 189.268L218.567 189.364L219.175 190.403L219.849 190.439L220.061 189.81L220.728 190.117L225.386 195.452L226.946 194.508L228.579 195.108L229.546 193.14L231.07 193.549L230.799 195.02L231.458 195.635L230.139 196.872L230.176 197.486L231.839 199.652L232.117 201.782L231.663 202.294L233.04 203.275L233.53 205.777L234.548 206.282L234.446 208.404L233.259 209.539L233.75 210.666L235.266 210.973L235.684 212.224L235.508 214.251L236.057 215.795L235.42 216.278L236.109 217.705L235.698 218.796L237.669 219.974L237.815 220.611L238.628 220.706L238.716 223.662L239.602 222.667L239.617 221.416L240.569 221.979L241.594 220.962L243.799 222.645L245.63 225.528L247.585 225.082L248.501 223.75L249.534 226.399L249.351 227.731L248.677 229.121L248.398 228.558L246.992 229.129L246.809 230.592L246.26 233.856L245.286 234.793L244.099 234.324L244.063 234.895L242.012 236.154L240.503 235.363L239.983 236.483L237.603 236.454L237.024 237.164L235.552 236.439L235.127 237.295L235.581 239.161L234.05 239.652L232.695 240.844L231.194 240.771L231.07 241.744L228.828 242.388L229.832 243.881L227.642 245.323L226.763 245.359L226.111 244.006L225.239 244.064L225.078 246.904L221.907 249.362L221.27 248.631L221.306 247.401L218.64 247.789L219.351 246.75L217.674 246.172L217.688 244.664L218.186 244.496L217.644 243.998L217.827 242.637L216.751 242.52L215.286 243.706L214.385 242.784L213.015 242.945L213.521 242.608L212.408 242.023L212.957 241.532L212.195 240.91L212.349 239.483L211.126 238.912L210.723 235.641L209.5 234.134L208.313 233.636L207.303 234.507L206.812 234.353L206.724 234.902L205.984 234.119L203.289 235.078L200.257 233.205L199.312 231.66L200.667 230.899L201.407 229.451L199.371 228.141L198.184 225.301L199.612 223.589L200.55 223.53L200.44 222.206L199.642 221.657L201.414 214.449L200.484 213.454L199.869 214.222L199.297 213.073L199.539 212.18L198.895 210.402L199.253 209.436L203.047 207.204L203.78 205.207L203.414 204.241L204.021 203.977L205.633 204.877L210.518 201.818L209.39 200.896L208.731 202.528L207.098 201.914L206.812 201.255L207.244 200.004L206.504 198.328L206.028 197.889L204.988 198.284L204.908 196.337L203.34 196.498L203.099 195.767L204.351 194.493L205.149 194.742L205.889 193.498L207.449 192.839L207.522 192.43L205.611 191.347L205.735 190.059L206.138 189.649L207.742 189.781L208.306 187.885L210.049 185.507Z" fill="#CDCACA"/>
<path d="M35.9397 60.3357L36.3645 61.1919L39.1623 60.7967L39.8288 61.8798L40.7956 62.2749L41.2643 63.6873L42.4362 62.8457L44.2452 64.0239L45.1022 63.5409L46.6183 64.0751L47.131 67.0461L46.6183 70.7416L47.8707 73.0102L49.0572 73.4492L49.3209 74.3274L48.1051 76.3983L49.4381 79.1279L48.5592 79.3035L48.0245 81.5281L47.2848 81.0524L45.3512 81.1988L41.7697 83.7381L41.2716 83.2917L39.5724 83.5698L38.1296 82.6185L37.0969 83.1014L37.0017 82.4648L35.5295 81.5501L34.0061 82.377L32.6511 82.033L31.7502 82.3184L31.0691 83.4673L28.4764 85.5456L27.7732 85.0553L26.3963 85.7066L24.3455 85.7578L22.5951 87.9605L20.3466 87.1775L19.6874 87.6751L19.4237 85.5895L18.1273 88.1946L16.1352 87.9092L16.3329 86.7164L14.2895 86.1603L14.121 82.4575L13.4252 81.7257L14.2822 78.9522L13.0078 78.1839L11.1035 78.3156L10.7226 77.2545L8.9282 76.5813L7.08252 74.4518L7.35351 73.5736L6.79688 71.4149L7.53661 68.3853L8.40819 68.1365L9.13328 68.6048L9.66794 67.734L10.979 68.1877L12.0703 67.8438L12.4584 67.09L14.1503 66.4973L14.3847 64.9898L15.8935 63.7165L18.2079 67.2291L20.0902 66.0948L21.4525 67.1925L22.3607 65.6484L23.9207 65.6045L25.2611 63.8336L28.7181 65.1801L31.9773 63.1311L31.948 62.4066L32.9368 61.6383L34.5627 61.9456L34.7824 60.3869L35.9397 60.3357Z" fill="#CDCACA"/>
<path d="M222.581 115.22L221.592 115.783L222.281 115.015L221.621 114.744L222.793 114.612L222.581 115.22ZM221.38 113.683L222.251 114.341L220.515 114.729L220.97 113.449L221.38 113.683ZM221.109 22.8833L223.189 24.3103L227.246 23.9005L228.762 24.442L229.414 25.2396L229.275 26.5568L229.986 27.7716L229.473 29.4327L230.117 30.2816L228.25 30.3255L225.716 31.9208L225.628 32.6087L226.529 33.1941L226.822 34.4674L225.489 33.8966L224.727 34.4747L223.372 33.8966L222.222 34.8113L221.922 34.4967L220.838 35.9895L220.633 37.2701L219.168 38.5581L219.402 39.5752L218.963 39.3777L219.095 39.8167L217.754 40.4973L217.513 41.9755L216.114 41.7779L215.352 42.3926L215.381 43.8489L214.063 45.2319L215.616 47.3175L217.139 47.3102L217.329 48.4664L218.677 48.3932L218.897 49.9519L220.669 51.3789L220.34 53.9987L218.216 55.433L216.919 57.4893L217.593 58.0747L218.113 59.9773L218.128 62.5166L219.175 62.5459L219.944 63.6509L221.028 63.6582L221.951 66.9732L222.969 67.8952L222.815 68.7733L224.28 69.5417L224.778 68.3709L225.686 68.8538L225.774 69.5124L226.594 69.893L226.631 71.0785L229.473 68.4514L229.964 68.949L231.414 67.4122L232.241 68.0269L231.926 68.7587L232.388 69.2929L232.791 68.5319L234.38 67.7415L234.849 67.7928L234.556 68.5977L235.471 69.432L236.585 68.7441L236.944 69.5417L238.079 69.1758L237.749 68.144L238.181 67.9684L238.606 69.1246L238.577 69.3515L238.87 69.6222L238.745 70.2223L239.346 70.4784L238.547 70.9467L240.034 72.3591L239.675 72.5493L240.151 73.5007L239.895 74.3568L240.606 73.8373L241.023 75.7911L241.602 75.9375L241.331 76.5229L242.07 77.1157L241.946 78.0816L242.664 77.9938L242.576 78.4402L243.359 78.8793L242.949 79.4427L239.346 79.6915L239.412 79.1427L238.745 78.8866L238.394 79.8818L236.196 80.1672L235.501 81.1112L230.916 83.9725L219.256 89.395L218.135 90.8366L216.912 90.2219L215.506 92.1099L214.451 94.1662L214.378 94.9565L214.986 95.2419L214.195 95.5346L213.052 100.284L214.048 100.591L213.257 101.374L213.675 103.218L214.612 104.279L214.4 108.158L215.454 109.051L216.612 111.319L216.238 111.07L215.652 111.766L216.319 112.175L216.949 111.714L216.773 112.527L217.146 112.629L217.549 112.402L217.227 111.114L217.586 111.136L220.735 115.066L220.252 118.337L219.468 119.054L219.497 121.14L218.326 120.737L218.575 118.644L217.827 118.322L217.154 118.6L216.604 119.859L217.242 120.657L216.963 122.171L217.535 122.654L218.011 122.325L218.055 122.852L217.088 122.757L217.007 123.811L215.242 122.406L214.803 120.81L213.345 120.437L212.876 119.742L212.635 117.627L213.096 116.72L212.488 115.929L211.697 115.937L210.628 116.881L209.053 116.756L208.46 115.988L207.376 116.698L205.699 114.444L200.792 113.661L199.18 114.232L194.588 114.173L192.449 115.168L191.907 116.793L189.571 117.451L188.099 118.842L187.191 118.93L186.671 118.754L186.356 117.569L184.818 116.537L180.643 116.815L180.526 115.724L180.357 114.971L174.512 111.839V110.039L173.472 110.661L171.18 109.812L171.612 108.626L171.312 107.887L172.242 107.141L170.045 106.321L169.364 107.55L168.368 107.016L168.192 107.946L167.313 107.785L165.614 106.358L166.317 104.982L165.68 104.579L164.5 104.814L164.779 103.562L164.2 102.669L162.098 101.718L162.171 100.767L160.838 100.416L160.758 99.918L158.824 99.4863L158.004 97.7666L156.568 96.3615L154.803 97.8324L154.43 97.108L153.338 96.8299L153.836 95.4322L153.111 94.3418L154.063 93.632L153.36 93.0832L154.063 91.2025L152.262 90.3756L151.749 90.9683L151.141 90.8366L151.441 89.3877L150.614 80.7892L158.736 68.7148L160.699 69.9296L159.762 70.7345L160.326 71.8468L158.729 74.7959L160.326 74.8032L161.827 75.5497L161.351 76.3766L162.442 77.0571L163.534 75.8204L163.892 76.5888L165.247 74.6422L165.57 75.4984L166.771 74.8545L168.184 76.2009L169.356 76.3546L171.187 73.8885L171.092 71.2541L172.227 71.3639L171.788 69.6295L173.509 67.5586L174.146 63.9729L175.919 64.1046L175.904 63.1094L175.955 63.6801L177.772 64.6607L177.515 63.9436L178.013 62.8166L178.958 62.6996L178.687 60.6213L181.339 60.7896L183.345 59.1358L184.92 58.9236L186.304 59.3626L186.7 61.4189L189.783 61.6385L190.45 60.27L189.615 58.7918L190.15 58.2064L189.615 57.7088L191.124 57.2697L190.442 56.1428L190.45 54.6646L192.457 54.0279L192.947 54.5914L193.489 54.0279L195.13 54.2036L198.191 53.1352L199.444 50.2446L200.25 50.5666L200.689 49.3958L198.917 47.7712L199.495 46.3296L198.609 45.9052L198.14 46.2052L197.818 44.7855L196.236 45.1514L195.657 44.6392L196.155 43.2561L195.731 42.2243L193.592 40.4461L195.32 39.3923L195.914 39.9338L196.111 37.2555L197.796 35.2724L197.364 34.2552L195.108 33.9478L195.196 32.7404L198.763 30.9402L199.913 31.1817L200.77 30.3182L201.619 30.267L202.044 30.8305L203.853 27.9619L203.729 26.8788L204.842 24.9103L204.615 23.2053L207.5 25.4592L208.108 25.247L209.244 25.9641L209.324 27.6179L211.77 25.6787L212.657 26.2349L214.839 25.547L215.389 26.1983L216.311 26.1544L216.685 25.8177L216.407 24.8518L217.044 24.9981L218.267 23.6224L220.076 22.9492L221.109 22.8833Z" fill="#CDCACA"/>
</g>
<defs>
<clipPath id="clip0_35_176">
<rect width="447" height="580" fill="white"/>
</clipPath>
</defs>
</svg>
