<svg width="30" height="30" viewBox="0 0 30 30" fill="none" xmlns="http://www.w3.org/2000/svg">
<path d="M30 3.46154C28.875 4.15385 27.75 4.38462 26.4375 4.61538C27.75 3.69231 28.6875 2.30769 29.0625 0.461538C27.9375 1.38461 26.625 1.84615 25.125 2.30769C24 0.923077 22.3125 0 20.625 0C16.6875 0 13.6875 4.61538 14.625 9.23077C9.5625 9 5.0625 6 1.875 1.38462C0.1875 4.84615 1.125 9.23077 3.75 11.5385C2.8125 11.5385 1.875 11.0769 0.9375 10.6154C0.9375 14.0769 3 17.3077 5.8125 18.2308C4.875 18.4615 3.9375 18.6923 3 18.4615C3.75 21.4615 6 23.7692 8.8125 23.7692C6.5625 25.8462 3.1875 27 0 26.5385C2.8125 28.6154 6 30 9.375 30C20.8125 30 27.1875 18.2308 26.8125 7.38461C28.125 6.46154 29.25 5.07692 30 3.46154Z" fill="#1DA1F2"/>
</svg>
